<?xml version="1.0" encoding="utf-8"?>
<!-- Generator: Adobe Illustrator 22.1.0, SVG Export Plug-In . SVG Version: 6.00 Build 0)  -->
<svg version="1.1" id="Layer_1" xmlns="http://www.w3.org/2000/svg" xmlns:xlink="http://www.w3.org/1999/xlink" x="0px" y="0px"
	 viewBox="0 0 16.3 28.8" style="enable-background:new 0 0 16.3 28.8;" xml:space="preserve">
<style type="text/css">
	.st0{fill:#008CA5;}
</style>
<g>
	<path class="st0" d="M14.9,27.6c-0.2-0.1-0.4-0.3-0.6-0.5c-1-1-2.1-2-3.1-3c-0.8-0.8-1.6-1.5-2.4-2.3c-1.3-1.2-2.6-2.5-3.9-3.7
		c-0.9-0.8-1.7-1.7-2.6-2.5c-0.3-0.4-0.7-0.7-1.1-1.1C1,14.3,1,14.2,1.2,14l0.1-0.1C2.7,12.6,4,11.3,5.4,10c0.8-0.8,1.7-1.6,2.5-2.4
		c1.2-1.1,2.4-2.3,3.6-3.4C12.6,3.1,13.8,2,15,0.8c0.1,0,0.1-0.1,0.2-0.1c0.1,0,0.2,0.1,0.3,0.2c0,0.2,0,0.3-0.1,0.4
		c-0.6,0.6-1.2,1.1-1.7,1.6c-1.7,1.6-3.3,3.2-5,4.8c-1.6,1.5-3.1,3-4.5,4.5c-0.7,0.7-1.4,1.3-2.1,2c-0.1,0.2-0.1,0.2,0,0.3
		c0.3,0.3,0.6,0.6,0.9,0.9c1.6,1.6,3.3,3.2,5,4.8c1.4,1.3,2.8,2.7,4.2,4c0.9,0.9,1.7,1.7,2.6,2.5c0.2,0.2,0.4,0.4,0.6,0.6
		c0.1,0.1,0.2,0.2,0.1,0.3c0,0.1-0.1,0.2-0.3,0.2C15.1,27.7,15,27.7,14.9,27.6z"/>
</g>
</svg>
