<?xml version="1.0" encoding="utf-8"?>
<!-- Generator: Adobe Illustrator 22.1.0, SVG Export Plug-In . SVG Version: 6.00 Build 0)  -->
<svg version="1.1" id="Layer_1" xmlns="http://www.w3.org/2000/svg" xmlns:xlink="http://www.w3.org/1999/xlink" x="0px" y="0px"
	 viewBox="0 0 202.7 35" style="enable-background:new 0 0 202.7 35;" xml:space="preserve">
<style type="text/css">
	.st0{fill:#F1A501;}
	.st1{fill:#161618;}
</style>
<path class="st0" d="M189.3,26.3L189.3,26.3c-3.2,0-5.9-2.7-5.9-5.9v-0.8c0-3.2,2.7-5.9,5.9-5.9l0,0c3.2,0,5.9,2.7,5.9,5.9v0.8
	C195.2,23.6,192.6,26.3,189.3,26.3z"/>
<path class="st0" d="M60.4,26.3L60.4,26.3c-3.2,0-5.9-2.7-5.9-5.9v-0.8c0-3.2,2.7-5.9,5.9-5.9l0,0c3.2,0,5.9,2.7,5.9,5.9v0.8
	C66.3,23.6,63.6,26.3,60.4,26.3z"/>
<path class="st1" d="M6.7,14.9l6.8,12.3h7.8l6.6-12.3h3.3v-2.2h-10v2.2h2.9l-4.8,8.9l-4.9-8.9h3.5v-2.2H3.4v2.2H6.7 M92.8,14.9v-2.2
	h13.4v2.2h-3.3v10h3.1c2.9,0,4.7-1.9,4.7-4.5h2.2v6.7H92.8v-2.2h3.4v-10L92.8,14.9 M60.2,25.3c-2.5,0-3.5-2.8-3.5-5.5
	c0-2.8,1.4-5.2,3.7-5.2s3.5,2.5,3.5,5.3C63.9,22.6,62.8,25.3,60.2,25.3 M60.3,12.4C53.6,12.4,50,15.8,50,20c0,4.3,3.4,7.7,10.3,7.7
	s10.3-3.4,10.3-7.7S67,12.4,60.3,12.4 M135.7,14.9l6.8,12.3h7.8l6.6-12.3h3.3v-2.2h-10v2.2h2.9l-4.8,8.9l-4.9-8.9h3.5v-2.2h-14.5
	v2.2H135.7 M189.2,25.3c-2.5,0-3.5-2.8-3.5-5.5c0-2.8,1.4-5.2,3.7-5.2s3.5,2.5,3.5,5.3C192.8,22.6,191.8,25.3,189.2,25.3
	 M189.3,12.4c-6.7,0-10.3,3.4-10.3,7.6c0,4.3,3.4,7.7,10.3,7.7c6.9,0,10.3-3.4,10.3-7.7S196,12.4,189.3,12.4"/>
</svg>
