<?xml version="1.0" encoding="utf-8"?>
<!-- Generator: Adobe Illustrator 22.1.0, SVG Export Plug-In . SVG Version: 6.00 Build 0)  -->
<svg version="1.1" id="Layer_1" xmlns="http://www.w3.org/2000/svg" xmlns:xlink="http://www.w3.org/1999/xlink" x="0px" y="0px"
	 viewBox="0 0 149 21.3" style="enable-background:new 0 0 149 21.3;" xml:space="preserve">
<style type="text/css">
	.st0{fill:#BDB9C6;}
</style>
<path class="st0" d="M11.1,6l4.6,8.4H21L25.5,6h2.4V4.5h-6.8V6h2l-3.3,6.1L16.5,6h2.4V4.5h-10V6H11.1 M69.9,6V4.5H79V6h-2.3v6.8h2.2
	c2,0,3.2-1.3,3.2-3.1h1.5v4.6H69.9v-1.5h2.3V6H69.9 M47.7,13.1c-1.7,0-2.4-1.9-2.4-3.8s1-3.5,2.5-3.5s2.4,1.7,2.4,3.6
	C50.2,11.2,49.4,13.1,47.7,13.1 M47.7,4.3c-4.6,0-7,2.3-7,5.2s2.3,5.3,7,5.3s7-2.3,7-5.3S52.3,4.3,47.7,4.3 M99.2,6l4.6,8.4h5.3
	l4.5-8.4h2.3V4.5h-6.8V6h2l-3.3,6.1L104.5,6h2.4V4.5h-10V6H99.2 M135.7,13.1c-1.7,0-2.4-1.9-2.4-3.8s1-3.5,2.5-3.5
	c1.6,0,2.4,1.7,2.4,3.6C138.2,11.2,137.5,13.1,135.7,13.1 M135.8,4.3c-4.6,0-7,2.3-7,5.2s2.3,5.3,7,5.3c4.7,0,7-2.3,7-5.3
	S140.4,4.3,135.8,4.3"/>
</svg>
