<?xml version="1.0" encoding="iso-8859-1"?>
<!-- Generator: Adobe Illustrator 19.0.0, SVG Export Plug-In . SVG Version: 6.00 Build 0)  -->
<svg version="1.1" id="Layer_1" xmlns="http://www.w3.org/2000/svg" xmlns:xlink="http://www.w3.org/1999/xlink" x="0px" y="0px"
	 viewBox="0 0 512 512" style="enable-background:new 0 0 512 512;" xml:space="preserve">
<path style="fill:#FFEA8A;" d="M460.8,512H51.2C23.04,512,0,488.96,0,460.8V51.2C0,23.04,23.04,0,51.2,0h409.6
	C488.96,0,512,23.04,512,51.2v409.6C512,488.96,488.96,512,460.8,512z"/>
<path style="fill:#FFDB2D;" d="M460.8,0H256v512h204.8c28.16,0,51.2-23.04,51.2-51.2V51.2C512,23.04,488.96,0,460.8,0z"/>
<polygon style="fill:#7AB9E8;" points="110.933,221.867 162.133,221.867 162.133,179.2 204.8,179.2 204.8,128 162.133,128 
	162.133,85.333 110.933,85.333 110.933,128 68.267,128 68.267,179.2 110.933,179.2 "/>
<circle style="fill:#FFAF33;" cx="384" cy="145.067" r="59.733"/>
<rect x="324.267" y="307.2" style="fill:#579ADF;" width="119.467" height="119.467"/>
<polygon style="fill:#FF6643;" points="62.578,426.667 221.867,426.667 142.222,290.133 "/>
<g>
</g>
<g>
</g>
<g>
</g>
<g>
</g>
<g>
</g>
<g>
</g>
<g>
</g>
<g>
</g>
<g>
</g>
<g>
</g>
<g>
</g>
<g>
</g>
<g>
</g>
<g>
</g>
<g>
</g>
</svg>
