<?xml version="1.0" encoding="utf-8"?>
<!-- Generator: Adobe Illustrator 22.1.0, SVG Export Plug-In . SVG Version: 6.00 Build 0)  -->
<svg version="1.1" id="Layer_1" xmlns="http://www.w3.org/2000/svg" xmlns:xlink="http://www.w3.org/1999/xlink" x="0px" y="0px"
	 viewBox="0 0 16.3 28.8" style="enable-background:new 0 0 16.3 28.8;" xml:space="preserve">
<style type="text/css">
	.st0{fill:#008CA5;}
</style>
<g>
	<path class="st0" d="M1.4,27.8c-0.2,0-0.3-0.1-0.3-0.2c-0.1-0.1,0-0.2,0.1-0.3c0.2-0.2,0.4-0.4,0.6-0.6c0.9-0.8,1.7-1.6,2.6-2.5
		c1.4-1.3,2.8-2.7,4.2-4c1.7-1.6,3.4-3.2,5-4.8c0.3-0.3,0.6-0.6,0.9-0.9c0.1-0.1,0.1-0.1,0-0.3c-0.7-0.7-1.4-1.3-2.1-2
		C11,10.7,9.5,9.2,7.9,7.7c-1.7-1.6-3.3-3.2-5-4.8C2.4,2.4,1.8,1.9,1.2,1.3C1.1,1.2,1.1,1.1,1.1,0.9c0.1-0.1,0.2-0.2,0.3-0.2
		c0.1,0,0.1,0.1,0.2,0.1C2.8,2,4,3.1,5.1,4.2c1.2,1.1,2.4,2.3,3.6,3.4c0.8,0.8,1.7,1.6,2.5,2.4c1.4,1.3,2.7,2.6,4.1,3.9
		c0,0,0.1,0.1,0.1,0.1c0.2,0.2,0.2,0.3,0,0.5c-0.4,0.4-0.8,0.7-1.1,1.1c-0.9,0.8-1.7,1.7-2.6,2.5c-1.3,1.2-2.6,2.5-3.9,3.7
		c-0.8,0.8-1.6,1.5-2.4,2.3c-1,1-2.1,2-3.1,3c-0.2,0.2-0.4,0.4-0.6,0.5C1.6,27.7,1.5,27.7,1.4,27.8z"/>
</g>
</svg>
